%TF.GenerationSoftware,KiCad,Pcbnew,10.0.0*%
%TF.CreationDate,2026-04-13T17:28:27-04:00*%
%TF.ProjectId,blinkyboardkicad,626c696e-6b79-4626-9f61-72646b696361,rev?*%
%TF.SameCoordinates,Original*%
%TF.FileFunction,Copper,L2,Bot*%
%TF.FilePolarity,Positive*%
%FSLAX46Y46*%
G04 Gerber Fmt 4.6, Leading zero omitted, Abs format (unit mm)*
G04 Created by KiCad (PCBNEW 10.0.0) date 2026-04-13 17:28:27*
%MOMM*%
%LPD*%
G01*
G04 APERTURE LIST*
G04 Aperture macros list*
%AMRoundRect*
0 Rectangle with rounded corners*
0 $1 Rounding radius*
0 $2 $3 $4 $5 $6 $7 $8 $9 X,Y pos of 4 corners*
0 Add a 4 corners polygon primitive as box body*
4,1,4,$2,$3,$4,$5,$6,$7,$8,$9,$2,$3,0*
0 Add four circle primitives for the rounded corners*
1,1,$1+$1,$2,$3*
1,1,$1+$1,$4,$5*
1,1,$1+$1,$6,$7*
1,1,$1+$1,$8,$9*
0 Add four rect primitives between the rounded corners*
20,1,$1+$1,$2,$3,$4,$5,0*
20,1,$1+$1,$4,$5,$6,$7,0*
20,1,$1+$1,$6,$7,$8,$9,0*
20,1,$1+$1,$8,$9,$2,$3,0*%
G04 Aperture macros list end*
%TA.AperFunction,ComponentPad*%
%ADD10R,1.800000X1.800000*%
%TD*%
%TA.AperFunction,ComponentPad*%
%ADD11C,1.800000*%
%TD*%
%TA.AperFunction,ComponentPad*%
%ADD12C,1.600000*%
%TD*%
%TA.AperFunction,ComponentPad*%
%ADD13RoundRect,0.412500X-0.412500X-0.412500X0.412500X-0.412500X0.412500X0.412500X-0.412500X0.412500X0*%
%TD*%
%TA.AperFunction,ComponentPad*%
%ADD14C,1.650000*%
%TD*%
%TA.AperFunction,ComponentPad*%
%ADD15R,1.295400X1.295400*%
%TD*%
%TA.AperFunction,ComponentPad*%
%ADD16C,1.295400*%
%TD*%
%TA.AperFunction,ComponentPad*%
%ADD17R,1.700000X1.700000*%
%TD*%
%TA.AperFunction,ComponentPad*%
%ADD18C,1.700000*%
%TD*%
%TA.AperFunction,ComponentPad*%
%ADD19RoundRect,0.250000X-0.550000X-0.550000X0.550000X-0.550000X0.550000X0.550000X-0.550000X0.550000X0*%
%TD*%
%TA.AperFunction,ViaPad*%
%ADD20C,0.600000*%
%TD*%
%TA.AperFunction,Conductor*%
%ADD21C,0.200000*%
%TD*%
G04 APERTURE END LIST*
D10*
%TO.P,D3,1,K_1*%
%TO.N,Net-(D1-K)*%
X103730000Y-86500000D03*
D11*
%TO.P,D3,2,A_2*%
%TO.N,Net-(D3-A)*%
X106270000Y-86500000D03*
%TD*%
D12*
%TO.P,C2,1*%
%TO.N,GND*%
X59500000Y-100000000D03*
%TO.P,C2,2*%
%TO.N,Net-(U1-CONT)*%
X64500000Y-100000000D03*
%TD*%
%TO.P,R1,1*%
%TO.N,+5V*%
X69190000Y-94000000D03*
%TO.P,R1,2*%
%TO.N,Net-(R1-Pad2)*%
X76810000Y-94000000D03*
%TD*%
D13*
%TO.P,RV1,1,1_1*%
%TO.N,Net-(R1-Pad2)*%
X54920000Y-94000000D03*
D14*
%TO.P,RV1,2,2_2*%
%TO.N,Net-(U1-DISCH)*%
X57460000Y-94000000D03*
%TO.P,RV1,3,3_3*%
%TO.N,/TR*%
X60000000Y-94000000D03*
%TD*%
D15*
%TO.P,U2,1,Q5_1*%
%TO.N,Net-(D5-A)*%
X59880000Y-55460000D03*
D16*
%TO.P,U2,2,Q1_2*%
%TO.N,Net-(D9-A)*%
X59880000Y-58000000D03*
%TO.P,U2,3,Q0_3*%
%TO.N,Net-(D10-A)*%
X59880000Y-60540000D03*
%TO.P,U2,4,Q2_4*%
%TO.N,Net-(D7-A)*%
X59880000Y-63080000D03*
%TO.P,U2,5,Q6_5*%
%TO.N,Net-(D3-A)*%
X59880000Y-65620000D03*
%TO.P,U2,6,Q7_6*%
%TO.N,Net-(D1-A)*%
X59880000Y-68160000D03*
%TO.P,U2,7,Q3_7*%
%TO.N,Net-(D6-A)*%
X59880000Y-70700000D03*
%TO.P,U2,8,VSS_8*%
%TO.N,GND*%
X59880000Y-73240000D03*
%TO.P,U2,9,Q8_9*%
%TO.N,Net-(D2-A)*%
X67500000Y-73240000D03*
%TO.P,U2,10,Q4_10*%
%TO.N,Net-(D8-A)*%
X67500000Y-70700000D03*
%TO.P,U2,11,Q9_11*%
%TO.N,Net-(D4-A)*%
X67500000Y-68160000D03*
%TO.P,U2,12,Cout_12*%
%TO.N,unconnected-(U2-Cout-Pad12)*%
X67500000Y-65620000D03*
%TO.P,U2,13,CKEN_13*%
%TO.N,GND*%
X67500000Y-63080000D03*
%TO.P,U2,14,CLK_14*%
%TO.N,/OUT*%
X67500000Y-60540000D03*
%TO.P,U2,15,Reset_15*%
%TO.N,GND*%
X67500000Y-58000000D03*
%TO.P,U2,16,VDD_16*%
%TO.N,+5V*%
X67500000Y-55460000D03*
%TD*%
D10*
%TO.P,D4,1,K_1*%
%TO.N,Net-(D1-K)*%
X98730000Y-93000000D03*
D11*
%TO.P,D4,2,A_2*%
%TO.N,Net-(D4-A)*%
X101270000Y-93000000D03*
%TD*%
D10*
%TO.P,D5,1,K_1*%
%TO.N,Net-(D1-K)*%
X89230000Y-76000000D03*
D11*
%TO.P,D5,2,A_2*%
%TO.N,Net-(D5-A)*%
X91770000Y-76000000D03*
%TD*%
D10*
%TO.P,D1,1,K_1*%
%TO.N,Net-(D1-K)*%
X106230000Y-75500000D03*
D11*
%TO.P,D1,2,A_2*%
%TO.N,Net-(D1-A)*%
X108770000Y-75500000D03*
%TD*%
D10*
%TO.P,D6,1,K_1*%
%TO.N,Net-(D1-K)*%
X126230000Y-75500000D03*
D11*
%TO.P,D6,2,A_2*%
%TO.N,Net-(D6-A)*%
X128770000Y-75500000D03*
%TD*%
D17*
%TO.P,J1,1,Pin_1_1*%
%TO.N,+5V*%
X89500000Y-96725000D03*
D18*
%TO.P,J1,2,Pin_2_2*%
%TO.N,GND*%
X89500000Y-99265000D03*
%TD*%
D10*
%TO.P,D10,1,K_1*%
%TO.N,Net-(D1-K)*%
X98730000Y-60500000D03*
D11*
%TO.P,D10,2,A_2*%
%TO.N,Net-(D10-A)*%
X101270000Y-60500000D03*
%TD*%
D10*
%TO.P,D8,1,K_1*%
%TO.N,Net-(D1-K)*%
X104730000Y-99000000D03*
D11*
%TO.P,D8,2,A_2*%
%TO.N,Net-(D8-A)*%
X107270000Y-99000000D03*
%TD*%
D19*
%TO.P,U1,1,GND_1*%
%TO.N,GND*%
X59880000Y-77960000D03*
D12*
%TO.P,U1,2,TRIG_2*%
%TO.N,/TR*%
X59880000Y-80500000D03*
%TO.P,U1,3,OUT_3*%
%TO.N,/OUT*%
X59880000Y-83040000D03*
%TO.P,U1,4,~{RST}_4*%
%TO.N,+5V*%
X59880000Y-85580000D03*
%TO.P,U1,5,CONT_5*%
%TO.N,Net-(U1-CONT)*%
X67500000Y-85580000D03*
%TO.P,U1,6,THRES_6*%
%TO.N,/TR*%
X67500000Y-83040000D03*
%TO.P,U1,7,DISCH_7*%
%TO.N,Net-(U1-DISCH)*%
X67500000Y-80500000D03*
%TO.P,U1,8,VCC_8*%
%TO.N,+5V*%
X67500000Y-77960000D03*
%TD*%
D10*
%TO.P,D9,1,K_1*%
%TO.N,Net-(D1-K)*%
X103230000Y-54000000D03*
D11*
%TO.P,D9,2,A_2*%
%TO.N,Net-(D9-A)*%
X105770000Y-54000000D03*
%TD*%
D10*
%TO.P,D2,1,K_1*%
%TO.N,Net-(D1-K)*%
X142230000Y-76000000D03*
D11*
%TO.P,D2,2,A_2*%
%TO.N,Net-(D2-A)*%
X144770000Y-76000000D03*
%TD*%
D19*
%TO.P,C1,1*%
%TO.N,/TR*%
X83000000Y-100000000D03*
D12*
%TO.P,C1,2*%
%TO.N,GND*%
X85000000Y-100000000D03*
%TD*%
D10*
%TO.P,D7,1,K_1*%
%TO.N,Net-(D1-K)*%
X104230000Y-66000000D03*
D11*
%TO.P,D7,2,A_2*%
%TO.N,Net-(D7-A)*%
X106770000Y-66000000D03*
%TD*%
D12*
%TO.P,R2,1*%
%TO.N,Net-(D1-K)*%
X70190000Y-100000000D03*
%TO.P,R2,2*%
%TO.N,GND*%
X77810000Y-100000000D03*
%TD*%
D20*
%TO.N,+5V*%
X77000000Y-91000000D03*
X73000000Y-91000000D03*
X66500000Y-92000000D03*
X57000000Y-75500000D03*
X59000000Y-76000000D03*
X63500000Y-81100000D03*
%TO.N,Net-(U1-DISCH)*%
X64500000Y-82000000D03*
%TO.N,GND*%
X81000000Y-98000000D03*
X63000000Y-89500000D03*
X70000000Y-58900000D03*
%TO.N,Net-(D2-A)*%
X107000000Y-81000000D03*
%TO.N,Net-(D3-A)*%
X109500000Y-92000000D03*
%TO.N,Net-(D1-A)*%
X68995735Y-70504265D03*
%TO.N,Net-(D7-A)*%
X86500000Y-67000000D03*
%TO.N,Net-(D5-A)*%
X91500000Y-68500000D03*
%TO.N,Net-(D4-A)*%
X100500000Y-94975000D03*
%TO.N,Net-(D1-K)*%
X105500000Y-71000000D03*
X79500000Y-97500000D03*
X108000000Y-93000000D03*
%TO.N,Net-(R1-Pad2)*%
X61000000Y-89500000D03*
X76500000Y-96500000D03*
%TD*%
%TO.N,+5V*%
D21*
X63500000Y-81100000D02*
X63500000Y-78500000D01*
X57000000Y-75500000D02*
X57500000Y-75000000D01*
X58000000Y-76000000D02*
X56500000Y-77500000D01*
X56500000Y-77500000D02*
X56500000Y-85500000D01*
X59000000Y-76000000D02*
X58000000Y-76000000D01*
X66960000Y-78500000D02*
X67500000Y-77960000D01*
X63500000Y-78500000D02*
X66960000Y-78500000D01*
X77000000Y-91000000D02*
X73000000Y-91000000D01*
X66500000Y-93934314D02*
X66565686Y-94000000D01*
X57000000Y-86000000D02*
X57420000Y-85580000D01*
X57420000Y-85580000D02*
X59880000Y-85580000D01*
X66565686Y-94000000D02*
X69190000Y-94000000D01*
X66500000Y-92000000D02*
X66500000Y-93934314D01*
X56500000Y-85500000D02*
X57000000Y-86000000D01*
X57500000Y-75000000D02*
X67500000Y-75000000D01*
X67500000Y-75000000D02*
X67500000Y-77960000D01*
%TO.N,Net-(U1-DISCH)*%
X66000000Y-80500000D02*
X67500000Y-80500000D01*
X64500000Y-82000000D02*
X66000000Y-80500000D01*
%TO.N,GND*%
X69580000Y-61000000D02*
X67500000Y-63080000D01*
X86500000Y-96500000D02*
X85000000Y-98000000D01*
X70000000Y-61000000D02*
X69580000Y-61000000D01*
X59880000Y-78380000D02*
X59880000Y-77960000D01*
X62000000Y-88500000D02*
X62000000Y-79500000D01*
X62000000Y-79500000D02*
X60460000Y-77960000D01*
X70000000Y-58900000D02*
X70000000Y-61000000D01*
X82500000Y-96500000D02*
X86500000Y-96500000D01*
X60460000Y-77960000D02*
X59880000Y-77960000D01*
X85000000Y-98000000D02*
X85000000Y-100000000D01*
X81000000Y-98000000D02*
X82500000Y-96500000D01*
X63000000Y-89500000D02*
X62000000Y-88500000D01*
%TO.N,Net-(D2-A)*%
X83948529Y-93900000D02*
X79748529Y-98100000D01*
X79748529Y-98100000D02*
X79500000Y-98100000D01*
X110100000Y-84100000D02*
X110100000Y-92248529D01*
X109748529Y-92600000D02*
X109251471Y-92600000D01*
X78500000Y-98500000D02*
X79100000Y-98500000D01*
X91834314Y-93900000D02*
X83948529Y-93900000D01*
X99489214Y-97400000D02*
X95334314Y-97400000D01*
X109251471Y-92600000D02*
X109051471Y-92400000D01*
X67500000Y-73240000D02*
X68740000Y-73240000D01*
X78500000Y-83000000D02*
X78500000Y-98500000D01*
X107000000Y-81000000D02*
X110100000Y-84100000D01*
X95334314Y-97400000D02*
X91834314Y-93900000D01*
X68740000Y-73240000D02*
X78500000Y-83000000D01*
X79100000Y-98500000D02*
X79500000Y-98100000D01*
X104489214Y-92400000D02*
X99489214Y-97400000D01*
X109051471Y-92400000D02*
X104489214Y-92400000D01*
X110100000Y-92248529D02*
X109748529Y-92600000D01*
%TO.N,Net-(D3-A)*%
X76967057Y-67000000D02*
X61260000Y-67000000D01*
X101967057Y-92000000D02*
X76967057Y-67000000D01*
X109500000Y-92000000D02*
X101967057Y-92000000D01*
X61260000Y-67000000D02*
X59880000Y-65620000D01*
%TO.N,Net-(D1-A)*%
X68995735Y-70504265D02*
X67991470Y-69500000D01*
X62500000Y-69500000D02*
X61160000Y-68160000D01*
X61160000Y-68160000D02*
X59880000Y-68160000D01*
X67991470Y-69500000D02*
X62500000Y-69500000D01*
%TO.N,Net-(D7-A)*%
X107000000Y-65770000D02*
X106770000Y-66000000D01*
X103000000Y-63500000D02*
X107000000Y-63500000D01*
X86500000Y-67000000D02*
X99500000Y-67000000D01*
X99500000Y-67000000D02*
X103000000Y-63500000D01*
X107000000Y-63500000D02*
X107000000Y-65770000D01*
%TO.N,Net-(D5-A)*%
X91500000Y-69500000D02*
X91770000Y-69770000D01*
X91500000Y-68500000D02*
X91500000Y-69500000D01*
X91770000Y-69770000D02*
X91770000Y-76000000D01*
%TO.N,Net-(D4-A)*%
X100500000Y-94975000D02*
X94315000Y-94975000D01*
X94315000Y-94975000D02*
X67500000Y-68160000D01*
%TO.N,Net-(D1-K)*%
X101100000Y-95223529D02*
X101100000Y-94726471D01*
X99323529Y-97000000D02*
X101100000Y-95223529D01*
X105500000Y-71000000D02*
X104230000Y-69730000D01*
X99373529Y-93000000D02*
X98730000Y-93000000D01*
X104230000Y-69730000D02*
X104230000Y-66000000D01*
X95500000Y-97000000D02*
X99323529Y-97000000D01*
X79500000Y-97500000D02*
X79500000Y-93500000D01*
X104730000Y-96270000D02*
X104730000Y-99000000D01*
X92000000Y-93500000D02*
X95500000Y-97000000D01*
X108000000Y-93000000D02*
X104730000Y-96270000D01*
X101100000Y-94726471D02*
X99373529Y-93000000D01*
X79500000Y-93500000D02*
X92000000Y-93500000D01*
%TO.N,Net-(R1-Pad2)*%
X66000000Y-94000000D02*
X68500000Y-96500000D01*
X68500000Y-96500000D02*
X76500000Y-96500000D01*
X63000000Y-92500000D02*
X64500000Y-94000000D01*
X61000000Y-89500000D02*
X62000000Y-89500000D01*
X64500000Y-94000000D02*
X66000000Y-94000000D01*
X63000000Y-90500000D02*
X63000000Y-92500000D01*
X62000000Y-89500000D02*
X63000000Y-90500000D01*
%TD*%
M02*
