M48
; DRILL file KiCad 10.0.0 date 2026-04-13T17:28:41
; FORMAT={-:-/ absolute / metric / decimal}
; #@! TF.CreationDate,2026-04-13T17:28:41-04:00
; #@! TF.GenerationSoftware,Kicad,Pcbnew,10.0.0
; #@! TF.FileFunction,Plated,1,2,PTH
FMAT,2
METRIC
; #@! TA.AperFunction,Plated,PTH,ViaDrill
T1C0.300
; #@! TA.AperFunction,Plated,PTH,ComponentDrill
T2C0.787
; #@! TA.AperFunction,Plated,PTH,ComponentDrill
T3C0.800
; #@! TA.AperFunction,Plated,PTH,ComponentDrill
T4C0.850
; #@! TA.AperFunction,Plated,PTH,ComponentDrill
T5C0.900
; #@! TA.AperFunction,Plated,PTH,ComponentDrill
T6C1.000
%
G90
G05
T1
X57.0Y-75.5
X59.0Y-76.0
X61.0Y-89.5
X63.0Y-89.5
X63.5Y-81.1
X64.5Y-82.0
X66.5Y-92.0
X68.996Y-70.504
X70.0Y-58.9
X73.0Y-91.0
X76.5Y-96.5
X77.0Y-91.0
X79.5Y-97.5
X81.0Y-98.0
X86.5Y-67.0
X91.5Y-68.5
X100.5Y-94.975
X105.5Y-71.0
X107.0Y-81.0
X108.0Y-93.0
X109.5Y-92.0
T2
X59.88Y-55.46
X59.88Y-58.0
X59.88Y-60.54
X59.88Y-63.08
X59.88Y-65.62
X59.88Y-68.16
X59.88Y-70.7
X59.88Y-73.24
X67.5Y-55.46
X67.5Y-58.0
X67.5Y-60.54
X67.5Y-63.08
X67.5Y-65.62
X67.5Y-68.16
X67.5Y-70.7
X67.5Y-73.24
T3
X59.5Y-100.0
X59.88Y-77.96
X59.88Y-80.5
X59.88Y-83.04
X59.88Y-85.58
X64.5Y-100.0
X67.5Y-77.96
X67.5Y-80.5
X67.5Y-83.04
X67.5Y-85.58
X69.19Y-94.0
X70.19Y-100.0
X76.81Y-94.0
X77.81Y-100.0
X83.0Y-100.0
X85.0Y-100.0
T4
X54.92Y-94.0
X57.46Y-94.0
X60.0Y-94.0
T5
X89.23Y-76.0
X91.77Y-76.0
X98.73Y-60.5
X98.73Y-93.0
X101.27Y-60.5
X101.27Y-93.0
X103.23Y-54.0
X103.73Y-86.5
X104.23Y-66.0
X104.73Y-99.0
X105.77Y-54.0
X106.23Y-75.5
X106.27Y-86.5
X106.77Y-66.0
X107.27Y-99.0
X108.77Y-75.5
X126.23Y-75.5
X128.77Y-75.5
X142.23Y-76.0
X144.77Y-76.0
T6
X89.5Y-96.725
X89.5Y-99.265
M30
