%TF.GenerationSoftware,KiCad,Pcbnew,10.0.0*%
%TF.CreationDate,2026-04-13T17:28:27-04:00*%
%TF.ProjectId,blinkyboardkicad,626c696e-6b79-4626-9f61-72646b696361,rev?*%
%TF.SameCoordinates,Original*%
%TF.FileFunction,Soldermask,Top*%
%TF.FilePolarity,Negative*%
%FSLAX46Y46*%
G04 Gerber Fmt 4.6, Leading zero omitted, Abs format (unit mm)*
G04 Created by KiCad (PCBNEW 10.0.0) date 2026-04-13 17:28:27*
%MOMM*%
%LPD*%
G01*
G04 APERTURE LIST*
G04 Aperture macros list*
%AMRoundRect*
0 Rectangle with rounded corners*
0 $1 Rounding radius*
0 $2 $3 $4 $5 $6 $7 $8 $9 X,Y pos of 4 corners*
0 Add a 4 corners polygon primitive as box body*
4,1,4,$2,$3,$4,$5,$6,$7,$8,$9,$2,$3,0*
0 Add four circle primitives for the rounded corners*
1,1,$1+$1,$2,$3*
1,1,$1+$1,$4,$5*
1,1,$1+$1,$6,$7*
1,1,$1+$1,$8,$9*
0 Add four rect primitives between the rounded corners*
20,1,$1+$1,$2,$3,$4,$5,0*
20,1,$1+$1,$4,$5,$6,$7,0*
20,1,$1+$1,$6,$7,$8,$9,0*
20,1,$1+$1,$8,$9,$2,$3,0*%
G04 Aperture macros list end*
%ADD10R,1.800000X1.800000*%
%ADD11C,1.800000*%
%ADD12C,1.600000*%
%ADD13RoundRect,0.412500X-0.412500X-0.412500X0.412500X-0.412500X0.412500X0.412500X-0.412500X0.412500X0*%
%ADD14C,1.650000*%
%ADD15R,1.295400X1.295400*%
%ADD16C,1.295400*%
%ADD17R,1.700000X1.700000*%
%ADD18C,1.700000*%
%ADD19RoundRect,0.250000X-0.550000X-0.550000X0.550000X-0.550000X0.550000X0.550000X-0.550000X0.550000X0*%
G04 APERTURE END LIST*
D10*
%TO.C,D3*%
X103730000Y-86500000D03*
D11*
X106270000Y-86500000D03*
%TD*%
D12*
%TO.C,C2*%
X59500000Y-100000000D03*
X64500000Y-100000000D03*
%TD*%
%TO.C,R1*%
X69190000Y-94000000D03*
X76810000Y-94000000D03*
%TD*%
D13*
%TO.C,RV1*%
X54920000Y-94000000D03*
D14*
X57460000Y-94000000D03*
X60000000Y-94000000D03*
%TD*%
D15*
%TO.C,U2*%
X59880000Y-55460000D03*
D16*
X59880000Y-58000000D03*
X59880000Y-60540000D03*
X59880000Y-63080000D03*
X59880000Y-65620000D03*
X59880000Y-68160000D03*
X59880000Y-70700000D03*
X59880000Y-73240000D03*
X67500000Y-73240000D03*
X67500000Y-70700000D03*
X67500000Y-68160000D03*
X67500000Y-65620000D03*
X67500000Y-63080000D03*
X67500000Y-60540000D03*
X67500000Y-58000000D03*
X67500000Y-55460000D03*
%TD*%
D10*
%TO.C,D4*%
X98730000Y-93000000D03*
D11*
X101270000Y-93000000D03*
%TD*%
D10*
%TO.C,D5*%
X89230000Y-76000000D03*
D11*
X91770000Y-76000000D03*
%TD*%
D10*
%TO.C,D1*%
X106230000Y-75500000D03*
D11*
X108770000Y-75500000D03*
%TD*%
D10*
%TO.C,D6*%
X126230000Y-75500000D03*
D11*
X128770000Y-75500000D03*
%TD*%
D17*
%TO.C,J1*%
X89500000Y-96725000D03*
D18*
X89500000Y-99265000D03*
%TD*%
D10*
%TO.C,D10*%
X98730000Y-60500000D03*
D11*
X101270000Y-60500000D03*
%TD*%
D10*
%TO.C,D8*%
X104730000Y-99000000D03*
D11*
X107270000Y-99000000D03*
%TD*%
D19*
%TO.C,U1*%
X59880000Y-77960000D03*
D12*
X59880000Y-80500000D03*
X59880000Y-83040000D03*
X59880000Y-85580000D03*
X67500000Y-85580000D03*
X67500000Y-83040000D03*
X67500000Y-80500000D03*
X67500000Y-77960000D03*
%TD*%
D10*
%TO.C,D9*%
X103230000Y-54000000D03*
D11*
X105770000Y-54000000D03*
%TD*%
D10*
%TO.C,D2*%
X142230000Y-76000000D03*
D11*
X144770000Y-76000000D03*
%TD*%
D19*
%TO.C,C1*%
X83000000Y-100000000D03*
D12*
X85000000Y-100000000D03*
%TD*%
D10*
%TO.C,D7*%
X104230000Y-66000000D03*
D11*
X106770000Y-66000000D03*
%TD*%
D12*
%TO.C,R2*%
X70190000Y-100000000D03*
X77810000Y-100000000D03*
%TD*%
M02*
